<mxfile host="app.diagrams.net" modified="2021-05-04T17:12:48.962Z" agent="5.0 (X11; Linux x86_64) AppleWebKit/537.36 (KHTML, like Gecko) Chrome/90.0.4430.93 Safari/537.36" etag="3QoNLEa2GzZ2E2d5RMzi" version="14.6.9" type="github">
  <diagram id="WA5Gq9k9Bae7HWEB3TZD" name="Page-1">
    <mxGraphModel dx="1422" dy="801" grid="1" gridSize="10" guides="1" tooltips="1" connect="1" arrows="1" fold="1" page="1" pageScale="1" pageWidth="850" pageHeight="1100" math="0" shadow="0">
      <root>
        <mxCell id="0" />
        <mxCell id="1" parent="0" />
        <mxCell id="kuR_hQlxpLB5Q5Pj9rX3-1" value="Создать 3d модель" style="rounded=0;whiteSpace=wrap;html=1;" parent="1" vertex="1">
          <mxGeometry x="272" y="280" width="350" height="330" as="geometry" />
        </mxCell>
        <mxCell id="kuR_hQlxpLB5Q5Pj9rX3-2" value="" style="endArrow=classic;html=1;entryX=0.005;entryY=0.19;entryDx=0;entryDy=0;entryPerimeter=0;" parent="1" target="kuR_hQlxpLB5Q5Pj9rX3-1" edge="1">
          <mxGeometry width="50" height="50" relative="1" as="geometry">
            <mxPoint x="80" y="343" as="sourcePoint" />
            <mxPoint x="72" y="320" as="targetPoint" />
          </mxGeometry>
        </mxCell>
        <mxCell id="kuR_hQlxpLB5Q5Pj9rX3-3" value="3D модели" style="edgeLabel;html=1;align=center;verticalAlign=middle;resizable=0;points=[];" parent="kuR_hQlxpLB5Q5Pj9rX3-2" vertex="1" connectable="0">
          <mxGeometry x="-0.2797" y="-1" relative="1" as="geometry">
            <mxPoint y="-9" as="offset" />
          </mxGeometry>
        </mxCell>
        <mxCell id="kuR_hQlxpLB5Q5Pj9rX3-4" value="" style="endArrow=classic;html=1;entryX=0.005;entryY=0.19;entryDx=0;entryDy=0;entryPerimeter=0;" parent="1" edge="1">
          <mxGeometry width="50" height="50" relative="1" as="geometry">
            <mxPoint x="80" y="540" as="sourcePoint" />
            <mxPoint x="272" y="540" as="targetPoint" />
          </mxGeometry>
        </mxCell>
        <mxCell id="kuR_hQlxpLB5Q5Pj9rX3-5" value="Сцена" style="edgeLabel;html=1;align=center;verticalAlign=middle;resizable=0;points=[];" parent="kuR_hQlxpLB5Q5Pj9rX3-4" vertex="1" connectable="0">
          <mxGeometry x="-0.2797" y="-1" relative="1" as="geometry">
            <mxPoint y="-9" as="offset" />
          </mxGeometry>
        </mxCell>
        <mxCell id="kuR_hQlxpLB5Q5Pj9rX3-6" value="" style="endArrow=classic;html=1;" parent="1" edge="1">
          <mxGeometry width="50" height="50" relative="1" as="geometry">
            <mxPoint x="400" y="720" as="sourcePoint" />
            <mxPoint x="400" y="610" as="targetPoint" />
          </mxGeometry>
        </mxCell>
        <mxCell id="kuR_hQlxpLB5Q5Pj9rX3-7" value="Пользователь" style="edgeLabel;html=1;align=center;verticalAlign=middle;resizable=0;points=[];" parent="kuR_hQlxpLB5Q5Pj9rX3-6" vertex="1" connectable="0">
          <mxGeometry x="-0.3393" y="1" relative="1" as="geometry">
            <mxPoint x="-49" y="-10" as="offset" />
          </mxGeometry>
        </mxCell>
        <mxCell id="kuR_hQlxpLB5Q5Pj9rX3-8" value="" style="endArrow=classic;html=1;entryX=0.049;entryY=-0.003;entryDx=0;entryDy=0;entryPerimeter=0;" parent="1" edge="1">
          <mxGeometry width="50" height="50" relative="1" as="geometry">
            <mxPoint x="623" y="20.99000000000001" as="sourcePoint" />
            <mxPoint x="623.1500000000001" y="130" as="targetPoint" />
          </mxGeometry>
        </mxCell>
        <mxCell id="kuR_hQlxpLB5Q5Pj9rX3-9" value="Редактировать&lt;br&gt;камеры" style="edgeLabel;html=1;align=center;verticalAlign=middle;resizable=0;points=[];" parent="kuR_hQlxpLB5Q5Pj9rX3-8" vertex="1" connectable="0">
          <mxGeometry x="-0.3393" y="1" relative="1" as="geometry">
            <mxPoint x="39" as="offset" />
          </mxGeometry>
        </mxCell>
        <mxCell id="kuR_hQlxpLB5Q5Pj9rX3-11" value="" style="endArrow=classic;html=1;entryX=0.049;entryY=-0.003;entryDx=0;entryDy=0;entryPerimeter=0;" parent="1" edge="1">
          <mxGeometry width="50" height="50" relative="1" as="geometry">
            <mxPoint x="703" y="20.99000000000001" as="sourcePoint" />
            <mxPoint x="703.1500000000001" y="130" as="targetPoint" />
          </mxGeometry>
        </mxCell>
        <mxCell id="kuR_hQlxpLB5Q5Pj9rX3-12" value="Редактировать&lt;br&gt;полигоны" style="edgeLabel;html=1;align=center;verticalAlign=middle;resizable=0;points=[];" parent="kuR_hQlxpLB5Q5Pj9rX3-11" vertex="1" connectable="0">
          <mxGeometry x="-0.3393" y="1" relative="1" as="geometry">
            <mxPoint x="39" as="offset" />
          </mxGeometry>
        </mxCell>
        <mxCell id="kuR_hQlxpLB5Q5Pj9rX3-13" value="" style="endArrow=classic;html=1;entryX=0.049;entryY=-0.003;entryDx=0;entryDy=0;entryPerimeter=0;" parent="1" edge="1">
          <mxGeometry width="50" height="50" relative="1" as="geometry">
            <mxPoint x="783" y="20.99000000000001" as="sourcePoint" />
            <mxPoint x="783.1500000000001" y="130" as="targetPoint" />
          </mxGeometry>
        </mxCell>
        <mxCell id="kuR_hQlxpLB5Q5Pj9rX3-14" value="Редактировать&lt;br&gt;источники&lt;br&gt;света" style="edgeLabel;html=1;align=center;verticalAlign=middle;resizable=0;points=[];" parent="kuR_hQlxpLB5Q5Pj9rX3-13" vertex="1" connectable="0">
          <mxGeometry x="-0.3393" y="1" relative="1" as="geometry">
            <mxPoint x="39" as="offset" />
          </mxGeometry>
        </mxCell>
        <mxCell id="kuR_hQlxpLB5Q5Pj9rX3-15" value="" style="endArrow=classic;html=1;" parent="1" edge="1">
          <mxGeometry width="50" height="50" relative="1" as="geometry">
            <mxPoint x="590" y="160" as="sourcePoint" />
            <mxPoint x="590" y="280" as="targetPoint" />
          </mxGeometry>
        </mxCell>
        <mxCell id="kuR_hQlxpLB5Q5Pj9rX3-16" value="Алгоритмы&lt;br&gt;рендера" style="edgeLabel;html=1;align=center;verticalAlign=middle;resizable=0;points=[];" parent="kuR_hQlxpLB5Q5Pj9rX3-15" vertex="1" connectable="0">
          <mxGeometry x="-0.3393" y="1" relative="1" as="geometry">
            <mxPoint x="29" y="3" as="offset" />
          </mxGeometry>
        </mxCell>
        <mxCell id="kuR_hQlxpLB5Q5Pj9rX3-18" value="" style="endArrow=classic;html=1;" parent="1" edge="1">
          <mxGeometry width="50" height="50" relative="1" as="geometry">
            <mxPoint x="280" y="160" as="sourcePoint" />
            <mxPoint x="280" y="280" as="targetPoint" />
          </mxGeometry>
        </mxCell>
        <mxCell id="kuR_hQlxpLB5Q5Pj9rX3-19" value="Алгоритмы&amp;nbsp;&lt;br&gt;отрисовки &lt;br&gt;&quot;вида&quot;&lt;br&gt;камер" style="edgeLabel;html=1;align=center;verticalAlign=middle;resizable=0;points=[];" parent="kuR_hQlxpLB5Q5Pj9rX3-18" vertex="1" connectable="0">
          <mxGeometry x="-0.3393" y="1" relative="1" as="geometry">
            <mxPoint x="40" y="3" as="offset" />
          </mxGeometry>
        </mxCell>
        <mxCell id="kuR_hQlxpLB5Q5Pj9rX3-20" value="" style="endArrow=classic;html=1;" parent="1" edge="1">
          <mxGeometry width="50" height="50" relative="1" as="geometry">
            <mxPoint x="622" y="360.3" as="sourcePoint" />
            <mxPoint x="800" y="360" as="targetPoint" />
          </mxGeometry>
        </mxCell>
        <mxCell id="kuR_hQlxpLB5Q5Pj9rX3-21" value="BMP файл" style="edgeLabel;html=1;align=center;verticalAlign=middle;resizable=0;points=[];" parent="kuR_hQlxpLB5Q5Pj9rX3-20" vertex="1" connectable="0">
          <mxGeometry x="-0.2797" y="-1" relative="1" as="geometry">
            <mxPoint y="-9" as="offset" />
          </mxGeometry>
        </mxCell>
        <mxCell id="kuR_hQlxpLB5Q5Pj9rX3-22" value="" style="endArrow=classic;html=1;" parent="1" edge="1">
          <mxGeometry width="50" height="50" relative="1" as="geometry">
            <mxPoint x="622" y="520.3" as="sourcePoint" />
            <mxPoint x="800" y="520" as="targetPoint" />
          </mxGeometry>
        </mxCell>
        <mxCell id="kuR_hQlxpLB5Q5Pj9rX3-23" value="3d файл" style="edgeLabel;html=1;align=center;verticalAlign=middle;resizable=0;points=[];" parent="kuR_hQlxpLB5Q5Pj9rX3-22" vertex="1" connectable="0">
          <mxGeometry x="-0.2797" y="-1" relative="1" as="geometry">
            <mxPoint y="-9" as="offset" />
          </mxGeometry>
        </mxCell>
        <mxCell id="kuR_hQlxpLB5Q5Pj9rX3-24" value="Создать сцену с моделями&lt;br&gt;&lt;div style=&quot;text-align: right&quot;&gt;&lt;span&gt;&amp;nbsp; 1&lt;/span&gt;&lt;/div&gt;" style="whiteSpace=wrap;html=1;aspect=fixed;" parent="1" vertex="1">
          <mxGeometry x="130" y="1200" width="80" height="80" as="geometry" />
        </mxCell>
        <mxCell id="kuR_hQlxpLB5Q5Pj9rX3-25" value="" style="endArrow=classic;html=1;entryX=0;entryY=0.25;entryDx=0;entryDy=0;" parent="1" target="kuR_hQlxpLB5Q5Pj9rX3-24" edge="1">
          <mxGeometry width="50" height="50" relative="1" as="geometry">
            <mxPoint x="20" y="1220" as="sourcePoint" />
            <mxPoint x="60" y="1220" as="targetPoint" />
          </mxGeometry>
        </mxCell>
        <mxCell id="kuR_hQlxpLB5Q5Pj9rX3-27" value="3d модели" style="edgeLabel;html=1;align=center;verticalAlign=middle;resizable=0;points=[];" parent="kuR_hQlxpLB5Q5Pj9rX3-25" vertex="1" connectable="0">
          <mxGeometry x="0.4" y="-2" relative="1" as="geometry">
            <mxPoint x="-17" y="-12" as="offset" />
          </mxGeometry>
        </mxCell>
        <mxCell id="kuR_hQlxpLB5Q5Pj9rX3-26" value="" style="endArrow=classic;html=1;entryX=0;entryY=0.25;entryDx=0;entryDy=0;" parent="1" edge="1">
          <mxGeometry width="50" height="50" relative="1" as="geometry">
            <mxPoint x="20" y="1260" as="sourcePoint" />
            <mxPoint x="130" y="1260" as="targetPoint" />
          </mxGeometry>
        </mxCell>
        <mxCell id="kuR_hQlxpLB5Q5Pj9rX3-28" value="Сцена" style="edgeLabel;html=1;align=center;verticalAlign=middle;resizable=0;points=[];" parent="kuR_hQlxpLB5Q5Pj9rX3-26" vertex="1" connectable="0">
          <mxGeometry x="0.2182" y="1" relative="1" as="geometry">
            <mxPoint x="-7" y="-9" as="offset" />
          </mxGeometry>
        </mxCell>
        <mxCell id="kuR_hQlxpLB5Q5Pj9rX3-29" value="Настроить&amp;nbsp;&lt;br&gt;камеры&lt;br&gt;&lt;div style=&quot;text-align: right&quot;&gt;2&lt;/div&gt;" style="whiteSpace=wrap;html=1;aspect=fixed;" parent="1" vertex="1">
          <mxGeometry x="250" y="1310" width="80" height="80" as="geometry" />
        </mxCell>
        <mxCell id="kuR_hQlxpLB5Q5Pj9rX3-30" value="" style="endArrow=classic;html=1;exitX=1;exitY=0.5;exitDx=0;exitDy=0;entryX=0;entryY=0.5;entryDx=0;entryDy=0;" parent="1" source="kuR_hQlxpLB5Q5Pj9rX3-24" target="kuR_hQlxpLB5Q5Pj9rX3-29" edge="1">
          <mxGeometry width="50" height="50" relative="1" as="geometry">
            <mxPoint x="360" y="1270" as="sourcePoint" />
            <mxPoint x="410" y="1220" as="targetPoint" />
            <Array as="points">
              <mxPoint x="220" y="1240" />
              <mxPoint x="220" y="1350" />
            </Array>
          </mxGeometry>
        </mxCell>
        <mxCell id="kuR_hQlxpLB5Q5Pj9rX3-31" value="Сцена с&amp;nbsp;&lt;br&gt;моделями" style="edgeLabel;html=1;align=center;verticalAlign=middle;resizable=0;points=[];" parent="kuR_hQlxpLB5Q5Pj9rX3-30" vertex="1" connectable="0">
          <mxGeometry x="0.16" y="-1" relative="1" as="geometry">
            <mxPoint as="offset" />
          </mxGeometry>
        </mxCell>
        <mxCell id="kuR_hQlxpLB5Q5Pj9rX3-35" value="" style="endArrow=classic;html=1;entryX=0.049;entryY=-0.003;entryDx=0;entryDy=0;entryPerimeter=0;" parent="1" edge="1">
          <mxGeometry width="50" height="50" relative="1" as="geometry">
            <mxPoint x="290" y="1160" as="sourcePoint" />
            <mxPoint x="289.6500000000001" y="1310" as="targetPoint" />
          </mxGeometry>
        </mxCell>
        <mxCell id="kuR_hQlxpLB5Q5Pj9rX3-36" value="Алгоритмы&amp;nbsp;&lt;br&gt;отрисовки&lt;br&gt;&quot;вида&quot;&lt;br&gt;камер" style="edgeLabel;html=1;align=center;verticalAlign=middle;resizable=0;points=[];" parent="kuR_hQlxpLB5Q5Pj9rX3-35" vertex="1" connectable="0">
          <mxGeometry x="-0.3393" y="1" relative="1" as="geometry">
            <mxPoint x="39" as="offset" />
          </mxGeometry>
        </mxCell>
        <mxCell id="kuR_hQlxpLB5Q5Pj9rX3-37" value="" style="endArrow=classic;html=1;entryX=0.043;entryY=0.997;entryDx=0;entryDy=0;entryPerimeter=0;" parent="1" edge="1">
          <mxGeometry width="50" height="50" relative="1" as="geometry">
            <mxPoint x="280" y="1760" as="sourcePoint" />
            <mxPoint x="280.04999999999995" y="1390" as="targetPoint" />
          </mxGeometry>
        </mxCell>
        <mxCell id="kuR_hQlxpLB5Q5Pj9rX3-39" value="" style="endArrow=classic;html=1;entryX=0.393;entryY=0;entryDx=0;entryDy=0;entryPerimeter=0;" parent="1" edge="1">
          <mxGeometry width="50" height="50" relative="1" as="geometry">
            <mxPoint x="380" y="160" as="sourcePoint" />
            <mxPoint x="380.04999999999995" y="280" as="targetPoint" />
          </mxGeometry>
        </mxCell>
        <mxCell id="kuR_hQlxpLB5Q5Pj9rX3-40" value="Алгоритмы&amp;nbsp;&lt;br&gt;отрисовки &lt;br&gt;света" style="edgeLabel;html=1;align=center;verticalAlign=middle;resizable=0;points=[];" parent="kuR_hQlxpLB5Q5Pj9rX3-39" vertex="1" connectable="0">
          <mxGeometry x="-0.3393" y="1" relative="1" as="geometry">
            <mxPoint x="49" y="3" as="offset" />
          </mxGeometry>
        </mxCell>
        <mxCell id="kuR_hQlxpLB5Q5Pj9rX3-41" value="" style="endArrow=classic;html=1;" parent="1" edge="1">
          <mxGeometry width="50" height="50" relative="1" as="geometry">
            <mxPoint x="490.5" y="160" as="sourcePoint" />
            <mxPoint x="490" y="280" as="targetPoint" />
          </mxGeometry>
        </mxCell>
        <mxCell id="kuR_hQlxpLB5Q5Pj9rX3-42" value="Алгоритмы&amp;nbsp;&lt;br&gt;сглаживания&lt;br&gt;полигонов" style="edgeLabel;html=1;align=center;verticalAlign=middle;resizable=0;points=[];" parent="kuR_hQlxpLB5Q5Pj9rX3-41" vertex="1" connectable="0">
          <mxGeometry x="-0.3393" y="1" relative="1" as="geometry">
            <mxPoint x="39" y="3" as="offset" />
          </mxGeometry>
        </mxCell>
        <mxCell id="kuR_hQlxpLB5Q5Pj9rX3-44" value="Настроить&amp;nbsp;&lt;br&gt;свет&lt;br&gt;&lt;div style=&quot;text-align: right&quot;&gt;3&lt;/div&gt;" style="whiteSpace=wrap;html=1;aspect=fixed;" parent="1" vertex="1">
          <mxGeometry x="370" y="1410" width="80" height="80" as="geometry" />
        </mxCell>
        <mxCell id="kuR_hQlxpLB5Q5Pj9rX3-46" value="" style="endArrow=classic;html=1;exitX=1;exitY=0.5;exitDx=0;exitDy=0;entryX=0;entryY=0.5;entryDx=0;entryDy=0;" parent="1" source="kuR_hQlxpLB5Q5Pj9rX3-29" target="kuR_hQlxpLB5Q5Pj9rX3-44" edge="1">
          <mxGeometry width="50" height="50" relative="1" as="geometry">
            <mxPoint x="400" y="1390" as="sourcePoint" />
            <mxPoint x="450" y="1340" as="targetPoint" />
            <Array as="points">
              <mxPoint x="350" y="1350" />
              <mxPoint x="350" y="1450" />
            </Array>
          </mxGeometry>
        </mxCell>
        <mxCell id="kuR_hQlxpLB5Q5Pj9rX3-55" value="Сцена&amp;nbsp;&lt;br&gt;с камерами" style="edgeLabel;html=1;align=center;verticalAlign=middle;resizable=0;points=[];" parent="kuR_hQlxpLB5Q5Pj9rX3-46" vertex="1" connectable="0">
          <mxGeometry x="-0.1429" y="2" relative="1" as="geometry">
            <mxPoint as="offset" />
          </mxGeometry>
        </mxCell>
        <mxCell id="kuR_hQlxpLB5Q5Pj9rX3-47" value="" style="endArrow=classic;html=1;entryX=0.043;entryY=0.997;entryDx=0;entryDy=0;entryPerimeter=0;" parent="1" edge="1">
          <mxGeometry width="50" height="50" relative="1" as="geometry">
            <mxPoint x="410" y="1840" as="sourcePoint" />
            <mxPoint x="409.54999999999995" y="1490" as="targetPoint" />
          </mxGeometry>
        </mxCell>
        <mxCell id="kuR_hQlxpLB5Q5Pj9rX3-48" value="Пользователь" style="edgeLabel;html=1;align=center;verticalAlign=middle;resizable=0;points=[];" parent="kuR_hQlxpLB5Q5Pj9rX3-47" vertex="1" connectable="0">
          <mxGeometry x="-0.3393" y="1" relative="1" as="geometry">
            <mxPoint x="-39" y="66" as="offset" />
          </mxGeometry>
        </mxCell>
        <mxCell id="kuR_hQlxpLB5Q5Pj9rX3-49" value="" style="endArrow=classic;html=1;entryX=0.049;entryY=-0.003;entryDx=0;entryDy=0;entryPerimeter=0;" parent="1" edge="1">
          <mxGeometry width="50" height="50" relative="1" as="geometry">
            <mxPoint x="410" y="1160" as="sourcePoint" />
            <mxPoint x="409.6500000000001" y="1410" as="targetPoint" />
          </mxGeometry>
        </mxCell>
        <mxCell id="kuR_hQlxpLB5Q5Pj9rX3-50" value="Алгоритмы&amp;nbsp;&lt;br&gt;отрисовки&lt;br&gt;света" style="edgeLabel;html=1;align=center;verticalAlign=middle;resizable=0;points=[];" parent="kuR_hQlxpLB5Q5Pj9rX3-49" vertex="1" connectable="0">
          <mxGeometry x="-0.3393" y="1" relative="1" as="geometry">
            <mxPoint x="39" y="-22" as="offset" />
          </mxGeometry>
        </mxCell>
        <mxCell id="kuR_hQlxpLB5Q5Pj9rX3-51" value="Настроить полигоны&lt;br&gt;4" style="whiteSpace=wrap;html=1;aspect=fixed;align=right;" parent="1" vertex="1">
          <mxGeometry x="490" y="1520" width="80" height="80" as="geometry" />
        </mxCell>
        <mxCell id="kuR_hQlxpLB5Q5Pj9rX3-53" value="" style="endArrow=classic;html=1;exitX=1;exitY=0.5;exitDx=0;exitDy=0;entryX=0;entryY=0.5;entryDx=0;entryDy=0;" parent="1" edge="1">
          <mxGeometry width="50" height="50" relative="1" as="geometry">
            <mxPoint x="450" y="1450" as="sourcePoint" />
            <mxPoint x="490" y="1560" as="targetPoint" />
            <Array as="points">
              <mxPoint x="460" y="1450" />
              <mxPoint x="460" y="1560" />
            </Array>
          </mxGeometry>
        </mxCell>
        <mxCell id="kuR_hQlxpLB5Q5Pj9rX3-54" value="Сцена со&amp;nbsp;&lt;br&gt;светом" style="edgeLabel;html=1;align=center;verticalAlign=middle;resizable=0;points=[];" parent="kuR_hQlxpLB5Q5Pj9rX3-53" vertex="1" connectable="0">
          <mxGeometry x="0.16" y="-1" relative="1" as="geometry">
            <mxPoint as="offset" />
          </mxGeometry>
        </mxCell>
        <mxCell id="kuR_hQlxpLB5Q5Pj9rX3-56" value="" style="endArrow=classic;html=1;entryX=0.043;entryY=0.997;entryDx=0;entryDy=0;entryPerimeter=0;" parent="1" edge="1">
          <mxGeometry width="50" height="50" relative="1" as="geometry">
            <mxPoint x="530" y="1760" as="sourcePoint" />
            <mxPoint x="529.55" y="1600" as="targetPoint" />
          </mxGeometry>
        </mxCell>
        <mxCell id="kuR_hQlxpLB5Q5Pj9rX3-58" value="" style="endArrow=classic;html=1;entryX=0.049;entryY=-0.003;entryDx=0;entryDy=0;entryPerimeter=0;" parent="1" edge="1">
          <mxGeometry width="50" height="50" relative="1" as="geometry">
            <mxPoint x="530" y="1160" as="sourcePoint" />
            <mxPoint x="530.07" y="1520" as="targetPoint" />
          </mxGeometry>
        </mxCell>
        <mxCell id="kuR_hQlxpLB5Q5Pj9rX3-59" value="Алгоритмы&amp;nbsp;&lt;br&gt;сглаживания&lt;br&gt;полигонов" style="edgeLabel;html=1;align=center;verticalAlign=middle;resizable=0;points=[];" parent="kuR_hQlxpLB5Q5Pj9rX3-58" vertex="1" connectable="0">
          <mxGeometry x="-0.3393" y="1" relative="1" as="geometry">
            <mxPoint x="39" y="-59" as="offset" />
          </mxGeometry>
        </mxCell>
        <mxCell id="kuR_hQlxpLB5Q5Pj9rX3-60" value="&lt;div style=&quot;text-align: center&quot;&gt;&lt;span&gt;Сохранить сцену&lt;/span&gt;&lt;/div&gt;5" style="whiteSpace=wrap;html=1;aspect=fixed;align=right;" parent="1" vertex="1">
          <mxGeometry x="610" y="1630" width="80" height="80" as="geometry" />
        </mxCell>
        <mxCell id="kuR_hQlxpLB5Q5Pj9rX3-61" value="" style="endArrow=classic;html=1;exitX=1;exitY=0.5;exitDx=0;exitDy=0;entryX=0;entryY=0.5;entryDx=0;entryDy=0;" parent="1" edge="1">
          <mxGeometry width="50" height="50" relative="1" as="geometry">
            <mxPoint x="570" y="1560" as="sourcePoint" />
            <mxPoint x="610" y="1670" as="targetPoint" />
            <Array as="points">
              <mxPoint x="580" y="1560" />
              <mxPoint x="580" y="1670" />
            </Array>
          </mxGeometry>
        </mxCell>
        <mxCell id="kuR_hQlxpLB5Q5Pj9rX3-62" value="Готовая&lt;br&gt;сцена" style="edgeLabel;html=1;align=center;verticalAlign=middle;resizable=0;points=[];" parent="kuR_hQlxpLB5Q5Pj9rX3-61" vertex="1" connectable="0">
          <mxGeometry x="0.16" y="-1" relative="1" as="geometry">
            <mxPoint as="offset" />
          </mxGeometry>
        </mxCell>
        <mxCell id="kuR_hQlxpLB5Q5Pj9rX3-63" value="" style="endArrow=classic;html=1;exitX=1;exitY=0.25;exitDx=0;exitDy=0;" parent="1" source="kuR_hQlxpLB5Q5Pj9rX3-60" edge="1">
          <mxGeometry width="50" height="50" relative="1" as="geometry">
            <mxPoint x="760" y="1690" as="sourcePoint" />
            <mxPoint x="820" y="1650" as="targetPoint" />
          </mxGeometry>
        </mxCell>
        <mxCell id="kuR_hQlxpLB5Q5Pj9rX3-65" value="Сохранить в BMP" style="edgeLabel;html=1;align=center;verticalAlign=middle;resizable=0;points=[];" parent="kuR_hQlxpLB5Q5Pj9rX3-63" vertex="1" connectable="0">
          <mxGeometry x="0.2033" y="-2" relative="1" as="geometry">
            <mxPoint x="-8" y="-12" as="offset" />
          </mxGeometry>
        </mxCell>
        <mxCell id="kuR_hQlxpLB5Q5Pj9rX3-64" value="" style="endArrow=classic;html=1;exitX=1;exitY=0.75;exitDx=0;exitDy=0;" parent="1" source="kuR_hQlxpLB5Q5Pj9rX3-60" edge="1">
          <mxGeometry width="50" height="50" relative="1" as="geometry">
            <mxPoint x="740" y="1730" as="sourcePoint" />
            <mxPoint x="820" y="1690" as="targetPoint" />
          </mxGeometry>
        </mxCell>
        <mxCell id="kuR_hQlxpLB5Q5Pj9rX3-66" value="Сохранить в 3D" style="edgeLabel;html=1;align=center;verticalAlign=middle;resizable=0;points=[];" parent="kuR_hQlxpLB5Q5Pj9rX3-64" vertex="1" connectable="0">
          <mxGeometry x="-0.2783" y="-1" relative="1" as="geometry">
            <mxPoint x="23" y="-11" as="offset" />
          </mxGeometry>
        </mxCell>
        <mxCell id="kuR_hQlxpLB5Q5Pj9rX3-69" value="" style="endArrow=classic;html=1;entryX=0.5;entryY=0;entryDx=0;entryDy=0;" parent="1" edge="1" target="kuR_hQlxpLB5Q5Pj9rX3-60">
          <mxGeometry width="50" height="50" relative="1" as="geometry">
            <mxPoint x="650" y="1160" as="sourcePoint" />
            <mxPoint x="659.9999999999999" y="1400" as="targetPoint" />
          </mxGeometry>
        </mxCell>
        <mxCell id="kuR_hQlxpLB5Q5Pj9rX3-70" value="Алгоритмы&lt;br&gt;рендера" style="edgeLabel;html=1;align=center;verticalAlign=middle;resizable=0;points=[];" parent="kuR_hQlxpLB5Q5Pj9rX3-69" vertex="1" connectable="0">
          <mxGeometry x="-0.3393" y="1" relative="1" as="geometry">
            <mxPoint x="39" y="-95" as="offset" />
          </mxGeometry>
        </mxCell>
        <mxCell id="YNg-Firoe4ba6hhBeRNG-2" value="" style="endArrow=classic;html=1;" edge="1" parent="1">
          <mxGeometry width="50" height="50" relative="1" as="geometry">
            <mxPoint x="520" y="720" as="sourcePoint" />
            <mxPoint x="520" y="610" as="targetPoint" />
          </mxGeometry>
        </mxCell>
        <mxCell id="YNg-Firoe4ba6hhBeRNG-3" value="ОС" style="edgeLabel;html=1;align=center;verticalAlign=middle;resizable=0;points=[];" vertex="1" connectable="0" parent="YNg-Firoe4ba6hhBeRNG-2">
          <mxGeometry x="-0.3393" y="1" relative="1" as="geometry">
            <mxPoint x="-49" y="-10" as="offset" />
          </mxGeometry>
        </mxCell>
        <mxCell id="YNg-Firoe4ba6hhBeRNG-4" value="" style="endArrow=classic;html=1;entryX=0.75;entryY=1;entryDx=0;entryDy=0;" edge="1" parent="1" target="kuR_hQlxpLB5Q5Pj9rX3-60">
          <mxGeometry width="50" height="50" relative="1" as="geometry">
            <mxPoint x="670" y="1840" as="sourcePoint" />
            <mxPoint x="670" y="1730" as="targetPoint" />
          </mxGeometry>
        </mxCell>
        <mxCell id="YNg-Firoe4ba6hhBeRNG-5" value="ОС" style="edgeLabel;html=1;align=center;verticalAlign=middle;resizable=0;points=[];" vertex="1" connectable="0" parent="YNg-Firoe4ba6hhBeRNG-4">
          <mxGeometry x="-0.5833" y="-2" relative="1" as="geometry">
            <mxPoint x="-22" y="-25" as="offset" />
          </mxGeometry>
        </mxCell>
        <mxCell id="YNg-Firoe4ba6hhBeRNG-6" value="" style="endArrow=none;html=1;" edge="1" parent="1">
          <mxGeometry width="50" height="50" relative="1" as="geometry">
            <mxPoint x="280" y="1760" as="sourcePoint" />
            <mxPoint x="630" y="1760" as="targetPoint" />
          </mxGeometry>
        </mxCell>
        <mxCell id="YNg-Firoe4ba6hhBeRNG-7" value="" style="endArrow=classic;html=1;entryX=0.25;entryY=1;entryDx=0;entryDy=0;" edge="1" parent="1" target="kuR_hQlxpLB5Q5Pj9rX3-60">
          <mxGeometry width="50" height="50" relative="1" as="geometry">
            <mxPoint x="630" y="1760" as="sourcePoint" />
            <mxPoint x="610" y="1840" as="targetPoint" />
          </mxGeometry>
        </mxCell>
      </root>
    </mxGraphModel>
  </diagram>
</mxfile>
